# AST/ASF file generated using VICON BodyLanguage
# -----------------------------------------------
:version 1.10
:name VICON
:units
  mass 1.0
  length 0.45
  angle deg
:documentation
   .ast/.asf automatically generated from VICON data using
   VICON BodyBuilder and BodyLanguage model FoxedUp or BRILLIANT.MOD
:root
   order TX TY TZ RX RY RZ
   axis XYZ
   position 0 0 0  
   orientation 0 0 0 
:bonedata
  begin
     id 1 
     name lhipjoint
     direction 0.521452 -0.77106 0.36545 
     length 2.0933 
     axis 0 0 0  XYZ
  end
  begin
     id 2 
     name lfemur
     direction 0.34202 -0.939693 0  
     length 6.83441  
     axis 0 0 20  XYZ
    dof rx ry rz
    limits (-160.0 20.0)
           (-70.0 70.0)
           (-60.0 70.0)
  end
  begin
     id 3 
     name ltibia
     direction 0.34202 -0.939693 0   
     length 7.28749   
     axis 0 0 20   XYZ
    dof rx
    limits (-10.0 170.0)
  end
  begin
     id 4 
     name lfoot
     direction 0.100608 -0.276418 0.955757   
     length 1.52195   
     axis -90 7.62852e-016 20   XYZ
    dof rx rz
    limits (-45.0 90.0)
           (-70.0 20.0)
  end
  begin
     id 5 
     name ltoes
     direction 1.53558e-011 -4.21907e-011 1   
     length 0.770459   
     axis -90 7.62852e-016 20   XYZ
    dof rx
    limits (-90.0 20.0)
  end
  begin
     id 6 
     name rhipjoint
     direction -0.488071 -0.788702 0.373812   
     length 2.04648  
     axis 0 0 0  XYZ 
  end
  begin
     id 7 
     name rfemur
     direction -0.34202 -0.939693 0   
     length 6.92583   
     axis 0 0 -20   XYZ
    dof rx ry rz
    limits (-160.0 20.0)
           (-70.0 70.0)
           (-70.0 60.0)
  end
  begin
     id 8 
     name rtibia
     direction -0.34202 -0.939693 0   
     length 7.41043   
     axis 0 0 -20   XYZ
    dof rx
    limits (-10.0 170.0)
 end
 begin
     id 9 
     name rfoot
     direction -0.0784433 -0.215521 0.973343   
     length 1.67708  
     axis -90 -7.62852e-016 -20   XYZ
    dof rx rz
    limits (-45.0 90.0)
           (-20.0 70.0)
  end
  begin
     id 10 
     name rtoes
     direction -1.53551e-011 -4.21842e-011 1   
     length 0.849787   
     axis -90 -7.62852e-016 -20   XYZ
    dof rx
    limits (-90.0 20.0)
  end
  begin
     id 11 
     name lowerback
     direction -0.0122332 0.997575 -0.0685192   
     length 1.98724   
     axis 0 0 0   XYZ
    dof rx ry rz
    limits (-20.0 45.0)
           (-30.0 30.0)
           (-30.0 30.0)
  end
  begin
     id 12 
     name upperback
     direction 0.0182347 0.999724 -0.0148421   
     length 1.99029   
     axis 0 0 0   XYZ
    dof rx ry rz
    limits (-20.0 45.0)
           (-30.0 30.0)
           (-30.0 30.0)
  end
  begin
     id 13 
     name thorax
     direction 0.0242908 0.99956 0.0170184   
     length 1.99573   
     axis 0 0 0   XYZ
    dof rx ry rz
    limits (-20.0 45.0)
           (-30.0 30.0)
           (-30.0 30.0)
  end
  begin
     id 14 
     name lowerneck
     direction 0.0654488 0.985533 0.156338   
     length 1.4285   
     axis 0 0 0   XYZ
    dof rx ry rz
    limits (-20.0 45.0)
           (-30.0 30.0)
           (-30.0 30.0)
  end
  begin
     id 15 
     name upperneck
     direction -0.02953 0.998556 -0.0448842   
     length 1.44709   
     axis 0 0 0   XYZ
    dof rx ry rz
    limits (-20.0 45.0)
           (-30.0 30.0)
           (-30.0 30.0)
  end
  begin
     id 16
     name head
     direction -0.0155588 0.999386 -0.0314063  
     length 1.44689  
     axis 0 0 0   XYZ
    dof rx ry rz
    limits (-20.0 45.0)
           (-30.0 30.0)
           (-30.0 30.0)
  end
  begin
     id 17 
     name lclavicle
     direction 0.968229 0.236071 -0.0824755  
     length 3.60593  
     axis 0 0 0   XYZ
    dof ry rz
    limits (-20.0 10.0)
           (0.0 20.0)
  end
  begin
     id 18 
     name lhumerus
     direction 1 -4.48968e-011 7.8138e-029   
     length 5.06035   
     axis 180 -30 -90   XYZ
    dof rx ry rz
    limits (-60.0 90.0)
           (-90.0 90.0)
           (-90.0 90.0)
  end
  begin
     id 19
     name lradius
     direction 1 -4.48967e-011 9.02887e-028   
     length 3.1478   
     axis 180 -30 -90   XYZ
    dof rx
    limits (-10.0 170.0)
  end
  begin
     id 20
     name lwrist
     direction 1 -4.48961e-011 7.20928e-028   
     length 1.5739   
     axis -5.52449e-016 90 90   XYZ
    dof ry
    limits (-180.0 0.0)
 end
  begin
     id 21 
     name lhand
     direction 1 -4.48972e-011 1.44186e-027   
     length 0.606747   
     axis -9.20027e-016 90 90   XYZ
    dof rx rz
    limits (-90.0 90.0)
           (-45.0 45.0)
  end
  begin
     id 22 
     name lfingers
     direction 1 -4.48943e-011 2.88371e-027   
     length 0.489175   
     axis -1.84005e-015 90 90   XYZ
    dof rx
    limits (0.0 90.0)
  end
  begin
     id 23
     name lthumb
     direction 0.707107 -6.34917e-011 0.707107   
     length 0.70236   
     axis -90 45 2.85299e-015   XYZ
    dof rx rz
    limits (-45.0 45.0)
           (-45.0 45.0)
  end
  begin
     id 24 
     name rclavicle
     direction -0.978165 0.207816 0.0022268   
     length 3.35425  
     axis 0 0 0   XYZ 
    dof ry rz
    limits (-10.0 20.0)
           (-20.0 0.0)
  end
  begin
     id 25 
     name rhumerus
     direction -1 -4.48964e-011 -4.02159e-027  
     length 5.12273   
     axis 180 30 90   XYZ
    dof rx ry rz
    limits (-90.0 60.0)
           (-90.0 90.0)
           (-90.0 90.0)
  end
  begin
     id 26 
     name rradius
     direction -1 -4.48966e-011 1.62746e-027   
     length 3.422   
     axis 180 30 90   XYZ
    dof rx
    limits (-10.0 170.0)
  end
  begin
     id 27 
     name rwrist
     direction -1 -4.4896e-011 7.20928e-028   
     length 1.711   
     axis -5.52449e-016 -90 -90   XYZ
    dof ry
    limits (-180.0 0.0)
  end
  begin
     id 28
     name rhand
     direction -1 -4.48979e-011 1.44186e-027   
     length 0.704599   
     axis -9.20027e-016 -90 -90   XYZ
    dof rx rz
    limits (-90.0 90.0)
           (-45.0 45.0)
  end
  begin
     id 29
     name rfingers
     direction -1 -4.48962e-011 2.88371e-027   
     length 0.568066   
     axis -1.84005e-015 -90 -90   XYZ
    dof rx
    limits (0.0 90.0)
  end
  begin
     id 30
     name rthumb
     direction -0.707107 -6.34949e-011 0.707107   
     length 0.815633   
     axis -90 -45 -2.85299e-015   XYZ
    dof rx rz
    limits (-45.0 45.0)
           (-45.0 45.0)
  end
:hierarchy
  begin
    root lhipjoint rhipjoint lowerback
    lhipjoint lfemur
    lfemur ltibia
    ltibia lfoot
    lfoot ltoes
    rhipjoint rfemur
    rfemur rtibia
    rtibia rfoot
    rfoot rtoes
    lowerback upperback
    upperback thorax
    thorax lowerneck lclavicle rclavicle
    lowerneck upperneck
    upperneck head
    lclavicle lhumerus
    lhumerus lradius
    lradius lwrist
    lwrist lhand lthumb
    lhand lfingers
    rclavicle rhumerus
    rhumerus rradius
    rradius rwrist
    rwrist rhand rthumb
    rhand rfingers
  end

#!OML:ASF E:\id_vita\Project 1\Capture day 1\Session 1\Male1.ASF
:FULLY-SPECIFIED
:DEGREES
850
root -33.6484 15.909 -1.51588 428.144 90.9622 423.161
lowerback -6.30937 -1.08141 -2.889
upperback -2.9197 -1.21807 0.680688
thorax 0.602965 -0.554211 2.23971
lowerneck -2.66128 3.1315 4.64136
upperneck 8.24336 4.00484 0.0946652
head 3.21534 2.16475 -0.625419
rclavicle 7.91411e-015 -1.78906e-015
rhumerus -33.2366 -20.5857 -78.4104
rradius 16.0636
rwrist 17.6396
rhand -21.9678 34.9284
rfingers 7.12502
rthumb 4.43982 4.99496
lclavicle 7.91411e-015 -1.78906e-015
lhumerus -26.22 8.59782 86.5204
lradius 12.3885
lwrist -10.5156
lhand -9.9873 45.4309
lfingers 7.12502
lthumb 15.9959 74.7905
rfemur -6.107 4.91712 14.4507
rtibia 19.9366
rfoot -11.2043 -19.7248
rtoes -16.659
lfemur -9.78993 0.579776 -18.6042
ltibia 28.9528
lfoot -24.111 13.8381
ltoes -2.1411
851
root -33.6288 15.9015 -1.52966 463.935 90.9303 459.157
lowerback -6.41897 -0.867183 -2.76112
upperback -2.81586 -0.938588 0.669114
thorax 0.751893 -0.420114 2.17326
lowerneck -2.53238 2.88189 4.3902
upperneck 8.14566 3.68768 0.133511
head 3.14102 1.99937 -0.584226
rclavicle -2.36057e-016 -4.77083e-015
rhumerus -33.285 -20.6627 -78.368
rradius 16.0908
rwrist 17.6621
rhand -21.3376 35.0715
rfingers 7.12502
rthumb 5.04835 5.1516
lclavicle -2.36057e-016 -4.77083e-015
lhumerus -26.3608 7.86785 86.7606
lradius 12.5855
lwrist -9.72788
lhand -10.116 45.9166
lfingers 7.12502
lthumb 15.872 75.2861
rfemur -5.98392 4.87863 14.3836
rtibia 19.9666
rfoot -11.0512 -19.1908
rtoes -17.6195
lfemur -9.35813 0.2503 -18.719
ltibia 28.9269
lfoot -24.067 14.6624
ltoes -1.64078
852
root -33.6285 15.9037 -1.53269 465.024 90.9283 460.228
lowerback -6.45052 -0.872447 -2.84311
upperback -2.76439 -0.941094 0.702028
thorax 0.824219 -0.422927 2.25239
lowerneck -2.64186 2.5854 4.28354
upperneck 8.14689 3.30182 -0.0458722
head 3.15423 1.79734 -0.637403
rclavicle 4.70871e-015 -4.37326e-015
rhumerus -33.2447 -20.9365 -78.2541
rradius 16.1479
rwrist 18.026
rhand -21.2554 35.0685
rfingers 7.12502
rthumb 5.12775 5.15056
lclavicle 4.70871e-015 -4.37326e-015
lhumerus -26.2963 7.67806 86.854
lradius 12.6159
lwrist -9.34603
lhand -10.0734 45.9296
lfingers 7.12502
lthumb 15.9129 75.2958
rfemur -6.00109 4.85378 14.366
rtibia 20.003
rfoot -11.557 -19.0468
rtoes -16.7619
lfemur -9.36847 0.292968 -18.7405
ltibia 28.9015
lfoot -24.0277 14.6405
ltoes -1.64749
853
root -33.6333 15.9088 -1.53184 473.175 91.1138 468.243
lowerback -6.51672 -0.834403 -2.21335
upperback -2.78846 -0.919963 0.318023
thorax 0.820233 -0.417307 1.50401
lowerneck -2.58389 2.33209 4.25611
upperneck 8.18549 2.94615 0.247468
head 3.14082 1.63232 -0.550973
rclavicle -5.72748e-015 -7.95139e-016
rhumerus -33.2755 -21.6338 -78.7495
rradius 16.0743
rwrist 18.8054
rhand -21.6932 35.1165
rfingers 7.12502
rthumb 4.70504 5.18875
lclavicle -5.72748e-015 -7.95139e-016
lhumerus -26.3189 6.99147 86.3446
lradius 12.6601
lwrist -8.75588
lhand -10.5661 45.8428
lfingers 7.12502
lthumb 15.4384 75.2462
rfemur -6.20681 4.82228 14.4984
rtibia 20.0119
rfoot -11.8219 -18.7741
rtoes -15.8499
lfemur -9.54494 0.509897 -18.5852
ltibia 28.9424
lfoot -24.1032 14.6303
ltoes -1.55855
854
root -33.6248 15.9085 -1.54268 472.847 91.173 468.172
lowerback -6.38372 -0.968326 -2.73253
upperback -2.67323 -1.08173 0.867165
thorax 0.890669 -0.496613 2.35041
lowerneck -2.73677 2.27476 3.41609
upperneck 8.22789 2.90619 0.229905
head 3.16534 1.58479 -0.41084
rclavicle -9.42985e-015 -4.96962e-016
rhumerus -32.8595 -20.4107 -78.5482
rradius 16.002
rwrist 18.2458
rhand -21.6988 35.2279
rfingers 7.12502
rthumb 4.6996 5.29999
lclavicle -9.42985e-015 -4.96962e-016
lhumerus -26.3094 9.20298 86.4102
lradius 12.2941
lwrist -10.4013
lhand -11.0243 45.702
lfingers 7.12502
lthumb 14.9971 75.1389
rfemur -5.87792 4.52742 14.5438
rtibia 19.9312
rfoot -11.3841 -18.5536
rtoes -17.2983
lfemur -9.21961 0.252605 -18.5845
ltibia 28.9673
lfoot -24.1966 14.8916
ltoes -1.05441
855
root -33.6235 15.8973 -1.54581 471.498 91.2222 466.94
lowerback -6.31424 -0.943883 -3.08532
upperback -2.60125 -1.03587 1.14197
thorax 0.933659 -0.473249 2.8364
lowerneck -2.82401 2.07781 2.98261
upperneck 8.27111 2.65968 0.260662
head 3.18314 1.45021 -0.333931
rclavicle 2.41958e-015 -1.13804e-014
rhumerus -32.7144 -20.0356 -78.3308
rradius 16.0618
rwrist 17.6951
rhand -21.6454 35.1395
rfingers 7.12502
rthumb 4.75116 5.2128
lclavicle 2.41958e-015 -1.13804e-014
lhumerus -26.2266 10.6897 86.2976
lradius 11.9942
lwrist -11.8957
lhand -10.8026 45.1352
lfingers 7.12502
lthumb 15.2106 74.556
rfemur -5.70433 4.58131 14.5891
rtibia 19.8588
rfoot -11.7743 -18.5855
rtoes -16.2634
lfemur -9.10854 0.177062 -18.5411
ltibia 29.0328
lfoot -24.2263 14.954
ltoes -0.914023
856
root -33.6364 15.91 -1.53581 454.829 91.3105 449.897
lowerback -6.59603 -0.918041 -2.37294
upperback -2.64889 -1.02488 0.533519
thorax 1.01869 -0.473003 1.80565
lowerneck -2.82279 1.74668 3.54701
upperneck 8.36504 2.16844 0.48806
head 3.21361 1.23583 -0.375819
rclavicle 5.59082e-016 -2.78299e-015
rhumerus -32.8879 -21.4287 -78.8668
rradius 16.1069
rwrist 18.1577
rhand -21.8913 34.887
rfingers 7.12502
rthumb 4.51378 4.95513
lclavicle 5.59082e-016 -2.78299e-015
lhumerus -26.0611 9.38655 85.6604
lradius 12.0476
lwrist -11.3659
lhand -10.4355 44.8986
lfingers 7.12502
lthumb 15.5643 74.2923
rfemur -6.0639 4.76881 14.8269
rtibia 19.8741
rfoot -11.2949 -19.1745
rtoes -17.1037
lfemur -9.6286 0.558362 -18.2521
ltibia 29.0176
lfoot -24.2537 14.2588
ltoes -2.13625
857
root -33.63 15.9032 -1.54332 457.971 91.2902 453.285
lowerback -6.33764 -0.970057 -2.67283
upperback -2.64028 -1.08834 0.778414
thorax 0.896793 -0.501544 2.22518
lowerneck -2.78669 1.5535 3.24428
upperneck 8.59038 1.95678 0.137406
head 3.28078 1.11181 -0.444757
rclavicle 1.08213e-014 4.96962e-015
rhumerus -32.9164 -20.848 -78.6841
rradius 16.1653
rwrist 17.816
rhand -21.9801 34.7303
rfingers 7.12502
rthumb 4.42795 4.79655
lclavicle 1.08213e-014 4.96962e-015
lhumerus -26.2539 10.6779 85.5297
lradius 11.8984
lwrist -12.3131
lhand -10.161 44.8304
lfingers 7.12502
lthumb 15.8286 74.2034
rfemur -5.72205 4.684 14.7682
rtibia 19.7295
rfoot -11.2245 -19.0067
rtoes -17.1178
lfemur -9.35836 0.71934 -18.3064
ltibia 29.1069
lfoot -24.3768 14.1859
ltoes -1.88152
858
root -33.6172 15.9106 -1.55082 474.746 91.3707 469.97
lowerback -6.74159 -0.753286 -2.2025
upperback -2.48666 -0.812172 0.352366
thorax 1.25141 -0.373939 1.53685
lowerneck -2.80323 1.29984 3.49109
upperneck 8.34625 1.58373 0.34265
head 3.19405 0.938026 -0.435547
rclavicle 6.4605e-016 -3.97569e-016
rhumerus -32.8245 -22.0227 -78.8976
rradius 16.0478
rwrist 18.5148
rhand -21.9925 34.8132
rfingers 7.12502
rthumb 4.41598 4.87923
lclavicle 6.4605e-016 -3.97569e-016
lhumerus -25.9381 10.6823 84.8757
lradius 11.7361
lwrist -12.7225
lhand -9.92871 44.7003
lfingers 7.12502
lthumb 16.0523 74.0553
rfemur -5.8197 4.60521 14.6678
rtibia 19.6263
rfoot -12.0563 -18.3842
rtoes -15.2042
lfemur -9.34493 0.869964 -18.3958
ltibia 29.1237
lfoot -24.4185 14.3647
ltoes -1.67015
